<svg width="566" height="343" xmlns="http://www.w3.org/2000/svg" xmlns:xlink="http://www.w3.org/1999/xlink" overflow="hidden"><defs><clipPath id="clip0"><path d="M121 173 687 173 687 516 121 516Z" fill-rule="evenodd" clip-rule="evenodd"/></clipPath></defs><g clip-path="url(#clip0)" transform="translate(-121 -173)"><rect x="169" y="265" width="24" height="192" fill="#BF9000"/><rect x="427" y="265" width="24" height="192" fill="#BF9000"/><path d="M169 457.033 204.25 457.033 204.25 466 169 466ZM415.75 456.699 451 456.699 451 465.666 415.75 465.666ZM192.059 264.753 204.25 264.753 204.25 457.033 192.059 457.033ZM169 233 451 233 451 264.753 427.941 264.753 427.941 456.699 415.75 456.699 415.75 264.753 169 264.753Z" fill="#404040" fill-rule="evenodd"/><path d="M456.507 270 497 270 497 514.756 456.507 514.756 456.507 515 162.493 515 162.493 481.813 456.507 481.813ZM122 270 162.493 270 162.493 515 122 515Z" fill="#AFABAB" fill-rule="evenodd"/><rect x="212" y="298" width="194" height="184" fill="#767171"/><rect x="212" y="270" width="194" height="28" fill="#A6A6A6"/><path d="M141 293.834C141 285.089 148.089 278 156.834 278L220.166 278C228.911 278 236 285.089 236 293.834L236 481.166C236 489.911 228.911 497 220.166 497L156.834 497C148.089 497 141 489.911 141 481.166Z" stroke="#0070C0" stroke-width="4" stroke-miterlimit="8" fill="none" fill-rule="evenodd"/><path d="M2-3.74953e-06 2.00009 46-1.99991 46-2 3.74953e-06ZM6.00008 44 0.000104987 56-5.99992 44Z" fill="#4472C4" transform="matrix(1 0 0 -1 141 433)"/><path d="M2-3.74953e-06 2.00009 46-1.99991 46-2 3.74953e-06ZM6.00008 44 0.000104987 56-5.99992 44Z" fill="#4472C4" transform="matrix(-1 -8.74228e-08 -8.74228e-08 1 236 334)"/><path d="M2-8.61063e-06 2.00006 14.3854-1.99994 14.3854-2 8.61063e-06ZM6.00005 12.3854 0.000104987 24.3854-5.99995 12.3854Z" fill="#4472C4" transform="matrix(-4.37114e-08 1 1 4.37114e-08 170 278)"/><path d="M204.385 499 190 499 190 495 204.385 495ZM192 503 180 497 192 491Z" fill="#4472C4"/><path d="M0 15.6671C-3.50112e-15 7.01438 7.01438-3.50112e-15 15.6671-3.50112e-15L78.3329 0C86.9856-3.50112e-15 94 7.01438 94 15.6671L94 204.333C94 212.986 86.9856 220 78.3329 220L15.6671 220C7.01438 220-1.75056e-15 212.986-1.75056e-15 204.333Z" stroke="#0070C0" stroke-width="4" stroke-miterlimit="8" fill="none" fill-rule="evenodd" transform="matrix(1 0 0 -1 381 500)"/><path d="M383 345 383 391 379 391 379 345ZM387 389 381 401 375 389Z" fill="#4472C4"/><path d="M473 443 473 397 477 397 477 443ZM469 399 475 387 481 399Z" fill="#4472C4"/><path d="M409 498 423.385 498 423.385 502 409 502ZM421.385 494 433.385 500 421.385 506Z" fill="#4472C4"/><path d="M2-8.61063e-06 2.00006 14.3854-1.99994 14.3854-2 8.61063e-06ZM6.00005 12.3854 0.000104987 24.3854-5.99995 12.3854Z" fill="#4472C4" transform="matrix(-4.37114e-08 -1 -1 4.37114e-08 444.385 280)"/><text fill="#FFFFFF" font-family="Calibri,Calibri_MSFontService,sans-serif" font-weight="400" font-size="24" transform="translate(262.735 400)">MAGNET<tspan fill="#000000" x="176.652" y="-197">WIRE</tspan><tspan fill="#000000" x="234.152" y="-197">WINDIN</tspan><tspan fill="#000000" x="313.319" y="-197">G</tspan></text><path d="M1.53125-1.28658 78.1616 89.9168 75.0991 92.4899-1.53125 1.28658ZM81.2241 87.3436C83.3558 89.8807 83.0271 93.6654 80.4901 95.7971 77.953 97.9288 74.1683 97.6001 72.0366 95.0631 69.9049 92.526 70.2336 88.7413 72.7706 86.6096 75.3077 84.4779 79.0924 84.8066 81.2241 87.3436Z" fill="#404040" transform="matrix(-1 -8.74228e-08 -8.74228e-08 1 516.63 215)"/><path d="M1.05599-1.6985 76.0628 44.9348 73.9508 48.3318-1.05599 1.6985ZM78.1748 41.5378C80.9889 43.2874 81.8519 46.9871 80.1023 49.8012 78.3527 52.6154 74.653 53.4784 71.8389 51.7288 69.0247 49.9791 68.1617 46.2795 69.9113 43.4653 71.661 40.6511 75.3606 39.7882 78.1748 41.5378Z" fill="#404040" transform="matrix(-1 -8.74228e-08 -8.74228e-08 1 551.007 298)"/><text font-family="Calibri,Calibri_MSFontService,sans-serif" font-weight="400" font-size="24" transform="translate(558.978 277)">MAGNETIC <tspan x="0" y="29">FIELD LINES</tspan></text></g></svg>